<svg width="105" height="20" viewBox="0 0 105 20" fill="none" xmlns="http://www.w3.org/2000/svg">
<path d="M0.000620184 18.2724L-4.6015e-05 0.724752L4.80089 -4.92641e-07L7.58096 0.000175942L7.58077 3.06523L3.1435 3.06495L3.14319 8.0077L7.5806 5.77132L7.58038 9.19534L3.14297 11.4593L3.14297 18.8963L0.000620184 18.2724Z" fill="white"/>
<path d="M9.15197 2.62352C9.15208 0.939121 10.0892 0.000335124 11.6877 0.000436572L15.1879 0.000658709C16.7864 0.000760157 17.751 0.939667 17.7509 2.62407L17.7509 3.09349L14.5813 4.75008L14.5814 3.03806L12.2939 3.03792L12.2936 7.87021L17.7507 5.05402L17.75 16.5411C17.7499 18.2255 16.7852 19.1643 15.1867 19.1642L11.6865 19.1639C10.088 19.1638 9.15098 18.2249 9.15109 16.5405L9.1512 14.7457L12.2932 13.1167L12.293 16.1265L14.5806 16.1267L14.5809 10.107L9.15131 12.9508L9.15197 2.62352Z" fill="white"/>
<path d="M28.5701 0.001508L28.5691 16.1L30.8566 16.1001L30.8577 0.00165317L34.0271 0.00185432L34.0261 16.4869C34.026 18.3094 33.144 19.1653 31.2699 19.1652L28.817 19.165C27.687 19.165 27.0256 18.5022 27.0256 17.3148C27.0256 18.5022 26.3365 19.1649 25.2065 19.1648L22.5607 19.1646C20.9622 19.1645 20.0252 18.2256 20.0253 16.5412L20.0263 0.000965773L23.1682 0.00116517L23.1672 16.0996L25.4823 16.0998L25.4833 0.0013121L28.5701 0.001508Z" fill="white"/>
<path d="M47.3402 6.82314L47.3405 2.9573L44.8049 2.95714L44.8046 8.06557L47.3402 6.82314ZM50.3718 8.97716L50.3713 16.5155C50.3712 18.3104 49.4616 19.1663 47.5599 19.1662L41.7722 19.1658L41.7734 0.00234593L47.8092 0.00272898C49.4077 0.00283043 50.3723 0.941737 50.3722 2.62614L50.3719 6.65765C50.3718 7.90024 49.9859 8.64577 49.0213 8.97707L50.3718 8.97716ZM47.3396 16.184L47.34 10.0263L44.8044 11.2963L44.8041 16.1838L47.3396 16.184Z" fill="white"/>
<path d="M61.2447 19.1671L58.1027 19.1669L58.1033 11.0486L55.7881 12.2358L55.7877 19.1667L52.6457 19.1665L52.6468 2.62628C52.6469 0.941882 53.584 0.00309547 55.1825 0.00319692L58.6827 0.00341906C60.2813 0.00352051 61.2458 0.942427 61.2457 2.62683L61.2447 19.1671ZM58.1035 7.67983L58.1038 3.04082L55.7887 3.04068L55.7883 8.81182L58.1035 7.67983Z" fill="white"/>
<path d="M69.0308 7.73575L69.0311 3.04152L66.716 3.04137L66.7157 8.89535L69.0308 7.73575ZM72.1726 9.50319L69.8575 10.6904L73.4398 19.1679L70.1601 19.1677L67.184 12.0709L66.7155 12.3194L66.715 19.1674L63.5731 19.1672L63.5743 0.0037295L69.6101 0.00411255C71.2086 0.004214 72.1732 0.943121 72.1731 2.62752L72.1726 9.50319Z" fill="white"/>
<path d="M79.9878 6.82521L79.988 2.95937L77.4524 2.95921L77.4521 8.06764L79.9878 6.82521ZM83.0193 8.97923L83.0188 16.5176C83.0187 18.3125 82.1092 19.1684 80.2075 19.1683L74.4197 19.1679L74.4209 0.00441787L80.4567 0.00480092C82.0553 0.00490237 83.0198 0.943809 83.0197 2.62821L83.0195 6.65972C83.0194 7.90231 82.6335 8.64785 81.6688 8.97914L83.0193 8.97923ZM79.9872 16.1861L79.9876 10.0283L77.4519 11.2984L77.4516 16.1859L79.9872 16.1861Z" fill="white"/>
<path d="M92.8725 19.1691L85.2933 19.1686L85.2945 0.00510795L92.8737 0.00558895L92.8735 3.07065L88.4362 3.07036L88.4359 8.01311L92.8733 5.77673L92.8731 9.20076L88.4357 11.4648L88.4354 16.1038L92.8727 16.104L92.8725 19.1691Z" fill="white"/>
<path d="M100.252 7.73773L100.252 3.0435L97.9371 3.04335L97.9367 8.89733L100.252 7.73773ZM103.394 9.50517L101.079 10.6924L104.661 19.1698L101.381 19.1696L98.4051 12.0729L97.9365 12.3214L97.9361 19.1694L94.7942 19.1692L94.7954 0.00571091L100.831 0.00609396C102.43 0.00619541 103.394 0.945102 103.394 2.6295L103.394 9.50517Z" fill="white"/>
<path d="M0.000620184 18.2724L-4.6015e-05 0.724752L4.80089 -4.92641e-07L7.58096 0.000175942L7.58077 3.06523L3.1435 3.06495L3.14319 8.0077L7.5806 5.77132L7.58038 9.19534L3.14297 11.4593L3.14297 18.8963L0.000620184 18.2724Z" fill="#003CFF"/>
<path d="M9.15197 2.62352C9.15208 0.939121 10.0892 0.000335124 11.6877 0.000436572L15.1879 0.000658709C16.7864 0.000760157 17.751 0.939667 17.7509 2.62407L17.7509 3.09349L14.5813 4.75008L14.5814 3.03806L12.2939 3.03792L12.2936 7.87021L17.7507 5.05402L17.75 16.5411C17.7499 18.2255 16.7852 19.1643 15.1867 19.1642L11.6865 19.1639C10.088 19.1638 9.15098 18.2249 9.15109 16.5405L9.1512 14.7457L12.2932 13.1167L12.293 16.1265L14.5806 16.1267L14.5809 10.107L9.15131 12.9508L9.15197 2.62352Z" fill="#003CFF"/>
<path d="M28.5701 0.001508L28.5691 16.1L30.8566 16.1001L30.8577 0.00165317L34.0271 0.00185432L34.0261 16.4869C34.026 18.3094 33.144 19.1653 31.2699 19.1652L28.817 19.165C27.687 19.165 27.0256 18.5022 27.0256 17.3148C27.0256 18.5022 26.3365 19.1649 25.2065 19.1648L22.5607 19.1646C20.9622 19.1645 20.0252 18.2256 20.0253 16.5412L20.0263 0.000965773L23.1682 0.00116517L23.1672 16.0996L25.4823 16.0998L25.4833 0.0013121L28.5701 0.001508Z" fill="#003CFF"/>
</svg>
