<svg width="31" height="22" viewBox="0 0 31 22" fill="none" xmlns="http://www.w3.org/2000/svg">
<path fill-rule="evenodd" clip-rule="evenodd" d="M1.81607 4.93797C1.81602 5.76654 2.14547 6.5612 2.73195 7.14713C3.31843 7.73306 4.1139 8.06226 4.94336 8.06231C5.77282 8.06236 6.56833 7.73326 7.15489 7.14741C7.74144 6.56156 8.07099 5.76694 8.07105 4.93837C8.0711 4.10979 7.74165 3.31513 7.15517 2.72921C6.56868 2.14328 5.77322 1.81408 4.94376 1.81403C4.11429 1.81397 3.31878 2.14307 2.73223 2.72893C2.14567 3.31478 1.81612 4.1094 1.81607 4.93797ZM4.94324 9.87632C3.88483 9.87614 2.85441 9.53662 2.0036 8.90771C1.15279 8.27881 0.526511 7.39373 0.216899 6.38269C-0.0927128 5.37166 -0.0693061 4.28805 0.283675 3.29129C0.636657 2.29454 1.30057 1.43727 2.17775 0.845612C3.05493 0.253955 4.09904 -0.040851 5.15648 0.00456924C6.21392 0.0499895 7.22885 0.433238 8.05194 1.09793C8.87504 1.76262 9.46284 2.67365 9.72887 3.69699C9.99489 4.72034 9.9251 5.80195 9.52975 6.78271L11.4748 8.08086C11.4605 8.12631 11.447 8.172 11.4344 8.21792L11.1236 9.32647L10.4113 9.8021L8.40577 8.46363C7.51387 9.33632 6.29109 9.87641 4.94324 9.87632ZM1.8153 17.0617C1.81535 16.2331 2.1449 15.4385 2.73146 14.8526C3.31801 14.2668 4.11352 13.9377 4.94299 13.9377C5.77245 13.9378 6.56792 14.267 7.1544 14.8529C7.74088 15.4388 8.07033 16.2335 8.07028 17.062C8.07022 17.8906 7.74067 18.6852 7.15412 19.2711C6.56756 19.8569 5.77205 20.186 4.94259 20.186C4.11313 20.1859 3.31766 19.8567 2.73118 19.2708C2.1447 18.6849 1.81525 17.8902 1.8153 17.0617ZM4.9431 12.1237C3.88561 12.1237 2.85601 12.4625 2.00552 13.0903C1.15503 13.7181 0.528485 14.6018 0.217905 15.6115C-0.0926746 16.6213 -0.0709159 17.7039 0.279985 18.7005C0.630886 19.697 1.29243 20.5548 2.16746 21.148C3.04249 21.7411 4.08487 22.0384 5.14151 21.996C6.19815 21.9537 7.21335 21.574 8.03799 20.9127C8.86264 20.2514 9.45326 19.3434 9.72312 18.322C9.99298 17.3006 9.92785 16.2197 9.53728 15.238L30.1655 1.50025L28.2466 1.65829C25.5406 1.94256 22.9201 2.7706 20.5427 4.09262L14.338 7.53886C14.105 7.66886 13.9001 7.84376 13.7352 8.05341C13.5703 8.26306 13.4487 8.50331 13.3774 8.76023L12.8668 10.5863L8.42158 13.555C7.49723 12.6371 6.24646 12.1224 4.9431 12.1237ZM14.3133 14.4724L14.3375 14.4865L20.5418 17.9336C22.919 19.2559 25.5394 20.0843 28.2454 20.3689L27.9683 19.0068L25.3462 17.3617L17.675 12.2253L14.3133 14.4724Z" fill="#003CFF"/>
</svg>
